<svg width="100" height="100" viewBox="0 0 100 100" xmlns="http://www.w3.org/2000/svg">
  <defs>
    <pattern id="coffee-pattern" patternUnits="userSpaceOnUse" width="100" height="100">
      <path d="M30,10 C35,15 40,5 45,10 C50,15 55,5 60,10 C65,15 70,5 75,10" stroke="#1E3A29" stroke-width="1" fill="none" opacity="0.1"/>
      <path d="M30,30 C35,35 40,25 45,30 C50,35 55,25 60,30 C65,35 70,25 75,30" stroke="#1E3A29" stroke-width="1" fill="none" opacity="0.1"/>
      <path d="M30,50 C35,55 40,45 45,50 C50,55 55,45 60,50 C65,55 70,45 75,50" stroke="#1E3A29" stroke-width="1" fill="none" opacity="0.1"/>
      <path d="M30,70 C35,75 40,65 45,70 C50,75 55,65 60,70 C65,75 70,65 75,70" stroke="#1E3A29" stroke-width="1" fill="none" opacity="0.1"/>
      <path d="M30,90 C35,95 40,85 45,90 C50,95 55,85 60,90 C65,95 70,85 75,90" stroke="#1E3A29" stroke-width="1" fill="none" opacity="0.1"/>
    </pattern>
  </defs>
  <rect width="100" height="100" fill="url(#coffee-pattern)"/>
</svg>
